<svg width="32" height="32" viewBox="0 0 32 32" fill="none" xmlns="http://www.w3.org/2000/svg">
<path d="M22.4502 5.5C23.2446 5.49941 24.0312 5.65738 24.7638 5.96466C25.4964 6.27195 26.1603 6.72236 26.7166 7.28952C27.8589 8.4494 28.4992 10.012 28.4992 11.64C28.4992 13.2681 27.8588 14.831 26.7162 15.9909L26.7158 15.9913L16.3558 26.4813L16 26.8416L15.6443 26.4813L5.28427 15.9913L5.28381 15.9909C4.14125 14.831 3.50081 13.2681 3.50081 11.64C3.50081 10.0119 4.14125 8.44905 5.28381 7.28913C5.84033 6.72254 6.50414 6.27248 7.23649 5.96523C7.96908 5.65787 8.75557 5.49957 9.55002 5.49957C10.3445 5.49957 11.131 5.65787 11.8635 5.96523C12.5961 6.27258 13.2601 6.72283 13.8168 7.28968L13.8177 7.2906L16.0007 9.52519L18.1704 7.31258C18.1709 7.31208 18.1714 7.31159 18.1719 7.31109C18.7265 6.73743 19.3911 6.28139 20.1259 5.97022C20.8612 5.65886 21.6517 5.49894 22.4502 5.5ZM22.4502 5.5C22.4504 5.5 22.4505 5.5 22.4507 5.5L22.45 6L22.4496 5.5C22.4498 5.5 22.45 5.5 22.4502 5.5ZM22.4499 4.5L22.4496 4.5C21.5218 4.49922 20.6031 4.68368 19.7475 5.04258C18.8919 5.40148 18.1166 5.92759 17.467 6.59007L17.4652 6.59197L17.4652 6.59197L16.3552 7.71197L16 8.0703L15.6449 7.71197L14.5349 6.59197L14.5335 6.59061C13.883 5.9292 13.1074 5.4039 12.2517 5.04533C11.3961 4.68676 10.4777 4.5021 9.55002 4.5021C8.62232 4.5021 7.70389 4.68676 6.84829 5.04533C5.9927 5.4039 5.21705 5.92918 4.56654 6.59057L22.4499 4.5ZM22.4499 4.5C23.3777 4.50026 24.2962 4.68523 25.1518 5.04414C26.0075 5.40305 26.7831 5.92871 27.4334 6.59047C28.7596 7.94059 29.5027 9.75746 29.5027 11.65C29.5027 13.5423 28.7599 15.3589 27.434 16.7089C27.4338 16.7091 27.4336 16.7094 27.4333 16.7096L16 28.2884M22.4499 4.5L16 28.2884M16 28.2884L4.56671 16.7096C4.56655 16.7095 4.5664 16.7093 4.56624 16.7091C3.24026 15.3591 2.49731 13.5424 2.49731 11.65C2.49731 9.75753 3.24035 7.94071 4.56649 6.59061L16 28.2884Z" fill="#BDBDBD" stroke="#252B42"/>
</svg>
